<svg width="1440" height="502" viewBox="0 0 1440 502" fill="none" xmlns="http://www.w3.org/2000/svg">
<path d="M1225.55 84.3458C1182.14 86.399 1162.68 88.3 1147.25 92.0261C1137.82 94.2313 1123.38 98.7178 1123.83 99.2501C1123.99 99.3262 1127.86 98.2616 1132.42 96.8168C1149.45 91.4178 1165.04 89.1365 1199.32 87.0073C1257.32 83.3573 1287.58 85.1823 1323.92 94.3074C1363.45 104.269 1403.28 123.964 1434.07 148.754C1438.71 152.556 1439.92 153.24 1439.92 152.024C1439.92 151.035 1436.65 148.145 1429.89 143.051C1386.94 110.809 1336.84 91.2657 1282.56 85.5625C1268.8 84.1177 1242.8 83.5854 1225.55 84.3458Z" fill="#101010"/>
<path d="M1246.83 99.5543C1227.3 100.619 1169.6 104.877 1158.65 106.018C1121.17 110.124 1089.25 119.629 1057.01 136.435C1028.13 151.491 1009.88 166.243 993.613 187.687C990.116 192.25 987.151 195.976 987.075 195.824C986.543 195.368 991.56 181.984 993.385 178.714C998.326 170.274 1009.65 158.183 1017.48 153.24C1019.69 151.795 1026.76 148.069 1033.22 144.799C1039.68 141.53 1052 135.142 1060.59 130.504C1069.18 125.865 1082.71 118.717 1090.61 114.611C1098.6 110.58 1104.83 107.159 1104.45 107.159C1103.61 107.159 1085.9 116.132 1066.29 126.549C1056.71 131.644 1041.89 139.324 1033.45 143.659C1015.81 152.632 1008.82 157.727 1000.45 167.688C997.49 171.186 994.905 174.076 994.677 174.076C994.449 174.076 995.057 172.783 995.969 171.186C998.934 166.243 1002.2 159.932 1000.99 161.529C997.87 165.635 997.566 165.711 999.618 161.833C1000.91 159.476 1003.65 154.913 1005.78 151.643C1011.02 143.659 1010.72 142.594 1005.4 150.122C1003.12 153.468 1000.83 156.13 1000.53 156.054C1000.15 155.902 1000.07 156.434 1000.3 157.118C1000.68 158.031 1000.53 158.183 999.77 157.727C999.162 157.346 998.934 157.423 999.238 157.879C999.466 158.259 999.01 159.552 998.174 160.844C996.198 163.658 991.408 173.087 991.408 174C991.408 174.38 986.391 184.418 980.309 196.28C971.415 213.466 968.374 218.637 965.258 221.83C957.58 229.891 954.691 231.184 938.119 233.845C931.733 234.834 928.16 234.986 919.57 234.453C901.705 233.389 899.805 233.617 875.478 239.016C857.234 243.046 840.129 249.358 823.481 258.179C790.793 275.516 778.629 291.181 758.408 342.129C754.303 352.395 750.73 361.064 750.35 361.52C749.97 361.9 749.666 362.813 749.666 363.497C749.666 364.258 749.21 365.322 748.754 365.855C748.222 366.387 747.689 367.375 747.537 367.984C747.385 368.592 746.777 370.265 746.169 371.634L745.029 374.067L738.795 369.353C726.632 359.923 709.984 342.586 696.224 324.944C693.868 321.978 684.517 309.279 675.319 296.732C657.15 271.866 653.121 266.619 643.162 255.061C608.878 215.367 553.535 182.06 505.795 172.555C489.071 169.285 479.112 168.525 458.587 168.981C418.677 169.893 378.614 180.007 341.441 198.485C329.658 204.341 305.864 218.408 303.811 220.69C303.431 221.146 304.115 220.842 305.331 220.081C335.663 201.147 351.171 193.467 375.65 185.102C431.068 166.319 482.077 164.723 528.069 180.387C555.968 189.969 584.703 206.014 609.638 226.013C628.491 241.145 643.771 257.798 663.764 285.022C687.862 317.796 698.961 332.396 705.727 340.228C715.001 351.026 728.837 364.258 737.503 370.721C743.964 375.512 745.409 377.109 743.508 377.109C742.292 377.109 734.234 371.406 727.012 365.398C713.253 353.916 697.516 336.122 679.348 311.408C648.18 269.205 643.01 262.741 628.415 248.141C609.486 229.13 586.832 213.314 558.629 199.474C509.52 175.368 461.628 171.947 398.836 187.839C374.357 194.075 350.563 203.048 329.734 213.846C323.804 216.888 309.969 224.872 298.87 231.488C266.79 250.65 249.533 258.939 232.657 263.35C198.144 272.246 164.467 263.578 127.446 236.05C110.265 223.275 95.3654 209.131 64.4254 175.977C31.4329 140.617 23.1467 132.405 7.71476 119.858L5.05408 117.728L7.71476 119.401C16.381 125.028 30.1405 137.804 64.3494 172.099C85.2547 193.086 106.084 213.466 110.645 217.344C138.468 241.145 160.97 253.54 186.361 259.015C195.483 260.992 216.845 260.916 225.891 258.939C232.885 257.418 246.72 253.236 246.264 252.78C246.112 252.628 242.843 253.464 238.966 254.757C227.715 258.331 218.365 259.471 204.606 259.015C187.729 258.407 176.402 255.593 160.59 248.141C131.095 234.149 111.938 218.104 55.9112 160.388C36.5262 140.313 25.9595 130.275 17.8254 123.964C14.3285 121.302 11.7438 118.869 11.8958 118.565C12.1239 118.261 11.6678 118.033 10.9076 118.109C10.2234 118.109 9.69127 117.804 9.76729 117.348C9.84331 116.816 9.38719 116.512 8.627 116.588C7.71476 116.664 7.33466 116.132 7.41068 114.991C7.4867 114.002 7.18263 113.47 6.87855 113.698C6.49845 113.926 6.34641 114.459 6.57447 114.839C6.87855 115.219 6.65049 115.523 6.19437 115.523C5.73825 115.523 5.20612 114.991 4.97806 114.383C4.67398 113.774 4.21786 113.47 3.83776 113.698C3.45767 113.926 3.15359 113.698 3.15359 113.242C3.15359 112.786 2.84951 112.634 2.39339 112.862C2.01329 113.09 1.6332 112.938 1.6332 112.482C1.6332 112.025 1.32912 111.873 0.872999 112.101C0.492901 112.329 0.112803 113.85 0.188823 115.371C0.188823 117.957 0.64494 118.489 5.96631 122.367C14.1764 128.374 30.4446 143.583 44.5082 158.487C51.274 165.635 64.8815 180.083 74.8401 190.577C120.072 238.408 148.807 258.483 183.396 266.239C194.419 268.672 214.26 268.672 225.435 266.239C244.364 262.057 261.848 254.453 288.607 238.712C297.425 233.541 308.372 227.077 312.933 224.416C344.254 206.09 379.527 192.63 415.18 185.482C435.781 181.376 443.383 180.615 466.113 180.615C488.311 180.539 495.456 181.224 512.485 185.102C550.267 193.543 593.218 217.42 623.397 246.62C637.537 260.384 644.303 268.825 680.792 317.796C701.241 345.247 718.726 363.497 736.439 375.816C742.824 380.227 743.888 381.976 738.339 378.934C731.421 375.208 718.27 364.714 709.452 355.893C697.44 343.878 688.622 333.156 666.272 303.272C644.151 273.767 637.689 265.935 625.754 253.92C604.24 232.4 574.669 213.314 543.045 200.767C519.403 191.337 498.725 187.459 472.575 187.459C454.634 187.535 442.319 188.904 421.261 193.086C375.878 202.211 343.417 214.682 296.893 240.765C274.011 253.692 262.608 259.395 250.977 264.034C233.569 270.954 220.874 273.691 205.594 273.691C184.612 273.691 166.824 268.749 146.831 257.266C120.984 242.438 99.3184 222.743 59.4081 177.878C37.5905 153.392 16.0009 131.188 7.56272 124.496C0.568921 118.945 0.112803 118.717 0.112803 120.618C0.112803 121.378 1.78523 123.203 3.76174 124.648C10.4515 129.591 37.0583 156.89 57.9637 180.159C105.172 232.78 130.41 254.3 158.994 266.391C184.612 277.265 208.178 278.786 234.557 271.41C250.521 266.923 265.725 260.004 292.408 245.175C332.47 222.819 351.855 214.15 383.328 204.569C417.384 194.227 443.155 189.893 471.434 189.893C505.415 189.817 531.49 196.28 564.178 212.857C593.978 227.99 617.088 246.468 639.209 272.931C643.619 278.178 655.174 293.082 664.98 306.161C674.711 319.165 685.353 333.004 688.546 336.958C704.206 355.893 718.65 369.505 732.866 378.782C742.14 384.789 741.836 385.702 732.486 380.227C722.755 374.447 715.229 368.592 704.89 358.478C693.031 346.996 683.453 335.438 665.056 310.952C643.086 281.524 637.157 274.452 623.093 260.308C609.258 246.392 599.527 238.636 584.779 229.739C526.548 194.455 480.557 188.296 409.478 206.09C366.147 216.964 338.552 227.914 291.268 252.78C262.913 267.684 244.44 275.288 227.259 279.166C216.693 281.524 192.67 281.752 182.56 279.47C166.672 276.049 151.392 269.281 135.96 259.015C112.394 243.274 91.7164 223.275 57.1275 182.821C41.3914 164.418 30.6727 152.252 22.9947 144.039C16.229 136.815 1.6332 123.127 0.72096 123.127C-1.40759 123.127 1.17708 126.549 8.47496 133.545C18.2815 142.898 31.2808 157.118 49.5255 178.258C80.7696 214.454 102.511 237.039 118.247 249.662C139.533 266.771 160.286 277.265 181.8 281.828C191.606 283.881 212.055 283.729 223.306 281.448C241.399 277.798 256.603 271.942 283.666 258.027C330.19 234.225 343.341 228.446 374.129 218.18C402.637 208.675 424.378 203.352 447.488 200.234C461.4 198.333 489.755 198.333 501.842 200.158C524.344 203.732 542.437 209.816 565.927 221.754C587.288 232.704 603.784 244.719 620.433 261.448C632.9 273.995 640.046 282.664 662.624 312.473C686.722 344.335 700.025 359.467 713.937 370.721C720.17 375.816 730.889 383.04 735.45 385.169C736.971 385.93 738.263 386.766 738.263 387.146C738.263 388.059 728.076 382.812 720.779 378.021C711.96 372.318 704.434 365.931 694.552 355.741C684.213 345.019 676.079 335.133 657.302 310.192C637.993 284.641 632.14 277.645 619.368 264.946C602.188 247.837 588.656 238.484 563.038 225.785C524.8 206.85 491.503 201.299 451.061 207.154C426.431 210.804 381.959 223.199 349.423 235.67C331.71 242.438 324.716 245.556 297.349 258.863C267.778 273.235 258.807 277.189 245.276 281.752C222.318 289.432 205.366 291.105 184.46 287.683C156.561 283.197 127.37 265.707 96.9618 235.366C83.0502 221.45 75.6763 212.933 48.7653 180.539C25.5794 152.48 13.0361 138.26 5.51019 131.416L0.492901 126.777L0.264842 133.013C0.0367837 138.64 0.188823 139.477 1.78523 141.302L3.53368 143.279L1.78523 141.834L0.112803 140.389V169.437L0.188823 198.485L9.0071 216.127C39.567 277.417 63.5131 312.929 95.2893 344.563C108.289 357.414 125.925 370.037 141.889 377.869C174.426 393.838 208.026 397.032 249.229 388.135C275.836 382.356 312.933 368.516 339.16 354.448C357.253 344.791 367.135 338.403 389.713 321.674C431.144 290.953 447.184 283.349 474.475 281.6C497.965 280.155 528.981 288.063 551.635 301.447C571.476 313.157 584.475 325.78 613.211 361.52C635.257 388.819 651.981 404.18 667.793 411.328C674.711 414.446 684.897 417.335 692.271 418.172L698.353 418.856L691.511 418.476C687.71 418.324 681.704 417.487 678.208 416.651C669.769 414.598 656.77 408.21 648.56 401.975C638.981 394.675 624.234 379.086 607.205 358.174C590.329 337.491 578.47 324.792 568.739 317.035C545.781 298.785 520.011 288.139 490.819 285.022C465.885 282.36 441.635 288.748 418.221 304.108C409.554 309.811 403.397 314.45 384.772 329.278C365.311 344.639 354.288 352.623 342.505 359.619C296.741 386.842 242.083 403.115 203.009 401.138C179.823 399.922 164.011 395.891 143.41 385.854C124.481 376.577 109.961 366.083 93.6169 349.734C71.0391 327.225 51.8821 300.002 28.5441 257.266C22.3865 245.936 15.7728 232.628 1.86125 203.732L0.188823 200.31L0.340862 209.435C0.492901 214.454 0.79698 219.245 1.17708 220.081C1.6332 221.298 1.6332 221.374 0.949019 220.462C0.264842 219.549 0.112803 220.462 0.340862 224.264C0.492901 227.001 0.872999 229.891 1.17708 230.727C1.6332 231.944 1.6332 232.02 0.949019 231.108C0.340862 230.271 0.112803 231.031 0.112803 234.453C0.112803 238.332 0.79698 240.537 5.58621 251.563C25.1993 296.58 50.5898 339.468 73.3957 366.007C81.9099 375.892 97.722 391.709 105.552 398.173C127.446 416.195 153.292 429.198 176.934 434.065C212.36 441.289 249.153 435.814 291.952 416.955C314.758 406.917 335.055 393.99 355.504 376.424C359.685 372.85 372.381 360.836 383.632 349.734C409.554 324.259 421.261 315.362 436.769 309.355C467.861 297.34 514.233 304.488 545.933 326.237C560.073 335.894 570.184 346.084 594.206 374.828C627.426 414.674 646.431 427.753 673.646 429.578L681.628 430.11L673.95 430.186C655.858 430.491 640.882 424.711 624.69 411.252C616.328 404.256 609.03 396.348 591.165 374.828C575.125 355.513 558.325 338.479 548.214 331.331C515.678 308.214 469.686 300.23 436.617 311.788C420.577 317.492 409.022 325.476 390.854 343.65C383.556 351.026 370.404 364.41 361.586 373.459C352.464 382.812 342.049 392.698 337.26 396.424C304.495 422.354 268.082 438.931 231.592 444.558C220.037 446.307 196.395 446.307 185.981 444.558C122.732 433.684 72.5595 388.287 27.7839 301.447C19.7259 285.706 10.3754 265.631 4.21786 250.726C2.31737 246.012 0.568921 241.982 0.492901 241.906C0.340862 241.753 0.188823 249.206 0.188823 258.483V275.44L5.89029 288.824C18.5095 318.328 33.7895 346.844 49.9056 371.025C61.0045 387.603 66.934 395.131 80.5415 410.035C111.634 443.95 144.398 463.265 182.56 470.033C186.133 470.641 194.191 471.021 204.225 471.021C217.453 470.945 221.862 470.641 230.072 469.196C263.141 463.341 298.11 447.22 323.576 426.156C330.874 420.073 344.634 406.537 353.908 396.119C358.241 391.329 358.241 391.329 355.124 395.359C342.505 412.012 322.892 432.696 311.033 441.897C288.303 459.463 258.275 472.998 230.224 478.321C218.137 480.602 195.255 481.135 183.396 479.462C112.85 469.044 51.274 403.724 5.66223 290.801L0.188823 277.113L0.112803 281.752C0.112803 285.706 0.79698 287.987 4.59796 297.34C21.3983 338.403 42.7598 376.424 64.1973 403.724C70.4309 411.632 84.5706 427.221 92.1725 434.521C114.826 456.193 142.574 472.39 168.496 478.93C202.781 487.522 238.966 482.96 276.672 465.242C297.121 455.661 313.314 444.178 330.494 426.917L342.809 414.674L336.956 422.278C333.763 426.46 326.921 434.293 321.752 439.692C306.32 455.585 293.396 465.014 273.403 474.823C226.043 498.092 178.835 498.472 136.188 475.736C106.084 459.767 77.7288 432.696 53.4025 396.88C35.614 370.645 21.9304 344.106 6.87855 306.77L0.112803 290.04V295.135C0.112803 299.622 0.64494 301.447 4.97806 311.865C20.7141 349.582 39.719 384.181 59.6361 411.328C69.5947 424.863 88.6756 445.623 99.9265 455.052C108.517 462.276 123.569 472.694 132.387 477.409C166.52 495.659 204.453 499.461 242.995 488.359C255.159 484.937 263.673 481.515 276.444 474.899C295.373 465.166 310.045 454.368 325.097 439.159C335.359 428.742 342.961 419.236 360.294 394.979C366.831 385.778 374.965 374.828 378.234 370.645C401.876 340.837 423.542 329.202 455.47 329.202C481.545 329.278 509.748 337.491 528.601 350.646C542.133 359.999 550.039 367.984 572.16 394.218C594.358 420.605 608.27 433.228 622.333 439.92C631.608 444.254 636.701 445.547 647.039 446.079C663.84 446.84 682.161 441.593 700.785 430.643C704.662 428.361 708.083 426.536 708.539 426.536C708.919 426.536 709.376 426.232 709.528 425.928C709.756 425.32 728.685 415.054 729.521 415.054C729.673 415.054 731.497 414.37 733.474 413.457C735.526 412.621 737.579 411.86 738.111 411.86C738.567 411.86 739.023 411.556 739.023 411.176C739.023 410.872 739.251 410.644 739.631 410.72C740.24 410.796 741.076 410.567 747.005 408.286C749.97 407.07 756.888 404.788 759.549 404.104C759.777 404.028 761.297 403.572 762.969 403.115C764.642 402.659 769.583 401.442 773.992 400.53C781.518 398.857 783.495 398.781 809.569 398.857C824.773 398.933 836.784 398.705 836.252 398.325C835.72 398.02 834.656 397.868 833.896 398.02C833.135 398.173 832.527 398.02 832.527 397.64C832.527 397.26 831.843 397.108 831.007 397.26C830.095 397.412 828.65 397.26 827.738 396.956C826.294 396.348 826.446 396.195 829.487 395.435C847.959 390.568 863.315 381.291 879.659 364.942C890.834 353.764 899.805 342.434 912.652 323.119C925.575 303.728 933.405 290.649 944.58 269.661L948.989 261.524L951.346 263.197C960.848 269.813 973.164 281.448 984.186 294.223C998.63 310.952 1012.24 330.647 1040.44 375.968C1068.8 421.442 1083.16 441.973 1098.44 458.93C1119.73 482.58 1141.32 495.735 1165.49 499.993C1175.6 501.742 1194.68 501.134 1202.74 498.777C1219.54 493.986 1231.86 484.176 1241.28 468.055C1246.3 459.615 1249.8 451.022 1257.17 429.654C1269.26 394.294 1274.66 381.9 1283.1 369.353C1302.25 340.913 1325.13 327.529 1354.78 327.453C1365.04 327.453 1372.42 328.594 1381.54 331.559C1395.15 335.97 1404.73 341.977 1414.53 352.167C1424.34 362.357 1430.65 373.839 1435.06 389.352C1436.2 393.306 1437.19 396.652 1437.42 396.804C1437.57 397.032 1438.25 396.652 1438.94 395.967C1439.92 394.903 1440 394.142 1439.32 391.633C1438.94 389.884 1438.86 388.515 1439.24 388.515C1439.54 388.515 1439.85 383.268 1439.85 376.881C1439.85 365.398 1439.85 365.17 1437.34 359.543C1433.77 351.254 1430.12 345.551 1423.66 338.251C1416.97 330.571 1411.64 326.389 1402.37 321.522C1384.43 312.169 1361.85 309.431 1339.58 313.994C1317.99 318.404 1303.7 326.084 1288.64 341.293C1274.58 355.437 1268.88 365.398 1255.88 397.868C1246.76 420.605 1241.59 430.947 1234.75 439.996C1221.75 457.029 1205.63 464.786 1182.98 464.786C1151.96 464.786 1124.67 451.326 1095.78 421.898C1080.5 406.385 1071.61 394.903 1041.58 352.395C1024.32 327.909 1014.82 314.982 1005.62 303.348C1003.19 300.23 1002.43 299.013 1003.95 300.686C1008.51 305.629 1019.76 319.849 1037.02 342.51C1064.08 378.097 1072.22 387.907 1087.19 403.267C1116.23 433.076 1140.33 446.383 1170.66 449.349C1194.84 451.782 1217.49 444.406 1232.77 429.122C1242.12 419.769 1247.97 409.655 1261.96 378.63C1273.97 352.167 1280.21 342.129 1291.69 331.179C1310.31 313.385 1335.02 304.64 1363.07 305.857C1386.63 306.922 1404.73 314.45 1419.47 329.126C1427.46 337.111 1432.47 344.943 1438.18 358.098L1440 362.281L1439.77 356.958C1439.54 352.091 1439.16 350.874 1435.74 344.867C1431.03 336.654 1421.45 325.552 1414.46 320.229C1399.41 308.899 1381.31 303.348 1359.27 303.348C1330.91 303.348 1307.42 312.701 1288.49 331.559L1281.04 338.936L1284.84 333.461C1300.2 311.408 1317.38 299.85 1340.72 296.124C1380.7 289.584 1418.94 308.747 1436.88 344.183L1439.92 350.114V346.084C1439.92 339.392 1434.68 330.799 1423.35 319.165C1415.83 311.408 1409.67 306.846 1400.39 302.207C1371.58 287.683 1334.79 288.9 1310.16 305.097C1292.37 316.807 1280.59 332.016 1263.25 365.55C1248.28 394.446 1240.98 405.168 1229.88 414.446C1214.07 427.753 1190.05 433.076 1165.34 428.894C1154.17 426.917 1144.59 423.799 1132.8 418.096C1105.13 404.788 1082.56 383.801 1042.72 334.525C1026.61 314.526 1017.18 303.272 1009.73 295.059C996.578 280.535 995.285 278.862 1004.71 288.52C1010.03 293.919 1021.13 305.933 1029.27 315.134C1064.01 354.144 1078.45 368.896 1094.03 381.443C1120.11 402.431 1144.06 412.849 1171.27 415.13C1199.32 417.411 1224.03 408.895 1240.75 391.101C1249.27 382.052 1254.59 374.143 1266.75 352.471C1270.55 345.779 1275.49 337.263 1277.77 333.613C1286.52 319.393 1298.76 305.857 1309.09 298.785C1334.18 281.828 1374.24 281.752 1403.28 298.709C1417.35 306.922 1429.59 319.621 1437.34 334.069L1439.92 338.707V334.677C1439.92 331.179 1439.47 329.963 1436.58 325.552C1421.07 301.751 1396.52 287.379 1366.03 284.261C1350.83 282.664 1332.89 285.402 1320.12 291.181C1299.44 300.534 1283.32 318.1 1264.32 352.015C1255.35 367.984 1250.79 375.36 1245.77 382.052C1234.75 396.652 1221.29 406.005 1205.1 410.415C1198.41 412.164 1196.51 412.392 1182.22 412.392C1169.9 412.469 1165.27 412.164 1160.17 411.1C1137.9 406.309 1115.78 395.055 1094.19 377.337C1082.48 367.756 1062.11 347.072 1041.2 323.499C1017.03 296.352 1004.64 283.12 995.513 274.908C985.327 265.631 983.198 263.502 989.128 268.292C999.998 277.037 1015.43 291.865 1036.34 313.69C1067.35 346.008 1082.56 359.619 1101.86 372.622C1149.83 404.864 1203.58 406.917 1237.64 377.945C1246.07 370.797 1254.51 359.391 1272.38 331.103C1291.99 299.85 1309.78 284.869 1333.88 279.318C1338.74 278.178 1343 277.874 1354.78 277.874C1368.47 277.874 1370.29 278.102 1377.97 280.003C1402.22 286.162 1422.21 300.154 1435.44 320.229L1439.92 327.073V323.499C1439.92 319.241 1437.95 316.123 1429.13 306.237C1405.94 280.383 1366.87 269.205 1331.37 278.33C1323.46 280.307 1311.53 286.238 1304.23 291.713C1297.01 297.112 1285.45 308.975 1279.22 317.264C1276.79 320.533 1272.07 327.529 1268.73 332.852C1248.43 364.866 1240.52 374.599 1227.75 383.116C1214.53 392.013 1201.07 395.663 1181.46 395.663C1154.24 395.663 1131.13 387.983 1103.92 369.885C1087.8 359.163 1076.4 348.973 1044.62 317.035C1011.17 283.425 1001.44 274.071 990.268 265.175C980.842 257.57 979.777 256.582 985.935 260.764C998.554 269.433 1013.23 282.132 1045.08 311.865C1052.98 319.241 1062.56 327.909 1066.29 331.103C1106.27 365.474 1141.09 380.835 1178.8 380.911C1205.48 380.911 1226.61 372.774 1243.72 355.817C1250.56 349.049 1256.56 341.521 1268.12 325.02C1287.05 298.101 1296.63 287.911 1311.6 278.938C1330.91 267.304 1360.18 265.251 1385.87 273.691C1405.87 280.231 1424.34 293.842 1435.67 310.344L1439.92 316.579V313.081C1439.92 309.127 1438.02 306.313 1428.67 296.352C1415.6 282.436 1394.77 271.638 1373.79 267.912C1364.21 266.239 1347.56 266.163 1338.29 267.836C1311.75 272.627 1291.08 288.596 1267.28 322.815C1250.56 346.92 1243.79 354.904 1234.06 362.281C1217.57 374.675 1200.46 379.39 1175.45 378.402C1155.76 377.641 1138.51 373.003 1118.36 362.965C1095.25 351.483 1076.63 337.263 1039.3 302.587C1013.76 278.786 999.01 266.163 987.607 258.103C982.21 254.3 981.07 253.236 984.947 255.441C995.057 261.296 1006.31 269.889 1034.74 293.462C1067.81 320.838 1083.32 332.32 1100.34 341.901C1126.57 356.577 1152.8 364.106 1178.04 364.182C1196.21 364.182 1209.58 361.292 1223.65 354.296C1239.38 346.54 1248.28 338.175 1269.49 311.028C1292.22 281.904 1307.73 269.281 1327.64 263.502C1337.3 260.688 1346.04 259.699 1357.44 260.232C1389.45 261.753 1417.65 276.277 1435.97 300.61L1439.92 305.857V302.739C1439.92 300.154 1439.32 298.937 1436.2 295.211C1422.82 279.394 1407.62 269.053 1388.23 262.741C1376.37 258.863 1366.95 257.494 1353.64 257.494C1321.56 257.57 1298.6 270.421 1272.53 303.12C1268.65 308.062 1262.11 316.199 1258.09 321.218C1244.78 337.947 1232.92 347.833 1219.54 353.536C1205.56 359.543 1193.24 361.52 1174.62 360.912C1152.65 360.151 1134.71 355.285 1111.9 344.03C1091.6 334.069 1074.5 322.206 1045.38 298.025C1011.63 270.041 996.578 258.483 985.175 251.791C981.906 249.966 979.245 248.217 979.245 248.065C979.245 247.229 994.829 256.125 1003.57 261.905C1008.82 265.403 1022.5 275.136 1033.98 283.577C1066.06 307.074 1080.12 316.351 1098.22 325.78C1134.78 344.943 1174.39 351.407 1205.94 343.346C1228.36 337.643 1242.65 327.833 1264.01 303.576C1293.66 269.889 1308.64 258.407 1330.23 253.008C1336.01 251.563 1338.97 251.335 1351.36 251.335C1367.48 251.335 1375.23 252.551 1388 257.038C1407.01 263.73 1425.71 277.037 1436.5 291.333L1439.92 295.896V292.854C1439.92 290.116 1439.32 289.128 1434.3 283.653C1424.42 272.931 1416.59 267 1403.51 260.46C1376.14 246.696 1341.93 244.871 1317.15 255.821C1300.58 263.197 1285.45 276.201 1262.19 303.12C1248.28 319.241 1239.61 326.845 1227.75 333.308C1203.5 346.616 1166.56 347.909 1132.2 336.806C1103.54 327.453 1083.92 316.275 1039.53 283.729C1007.07 260.004 989.66 248.749 978.105 244.035C975.824 243.122 974 242.134 974.228 241.982C974.836 241.297 991.104 248.597 1000.15 253.616C1005.17 256.43 1019.38 265.098 1031.7 272.931C1067.35 295.515 1081.42 303.576 1098.29 311.18C1128.32 324.792 1160.48 331.331 1186.47 329.202C1198.03 328.29 1205.33 326.845 1215.67 323.423C1232.85 317.72 1241.44 311.56 1266.14 287.379C1276.63 277.113 1287.81 266.695 1290.93 264.11C1303.09 254.224 1315.33 247.609 1328.02 244.263C1334.71 242.438 1336.69 242.21 1349.84 242.21C1361.93 242.21 1365.58 242.514 1372.04 243.883C1398.19 249.51 1419.32 261.753 1435.97 280.839L1439.92 285.402V282.664C1439.92 280.231 1439.16 279.09 1432.55 272.399C1413.55 253.16 1386.56 241.373 1357.59 239.776C1340.72 238.788 1326.43 241.753 1311.07 249.358C1297.54 256.049 1288.04 263.654 1267.97 283.577C1258.54 293.006 1248.35 302.739 1245.47 305.173C1234.21 314.298 1220.76 320.838 1205.78 324.411C1194.84 326.997 1171.12 327.681 1157.51 325.78C1134.48 322.586 1112.58 315.438 1088.03 302.968C1075.71 296.732 1061.73 288.443 1036.64 272.399C1008.13 254.3 994.601 246.696 980.766 241.297C973.392 238.408 973.392 238.027 980.842 240.233C992.549 243.731 1008.97 251.563 1042.34 269.585C1089.55 295.059 1114.41 304.64 1149.15 310.724C1155 311.712 1161.08 312.017 1175.76 312.017C1192.71 312.017 1195.6 311.865 1202.74 310.344C1226.92 305.097 1240.75 297.188 1266.98 273.691C1288.64 254.3 1298.07 247.381 1311.45 241.069C1325.59 234.377 1341.63 231.716 1358.05 233.313C1387.62 236.202 1412.25 247.533 1432.17 267.456C1439.85 275.136 1439.92 275.212 1439.92 272.779C1439.92 270.65 1438.86 269.281 1432.47 263.045C1417.35 248.217 1396.59 237.419 1373.48 232.476C1367.17 231.108 1363.22 230.803 1350.98 230.803C1331.98 230.727 1323.92 232.476 1308.79 240.004C1295.18 246.848 1285.68 253.844 1264.32 273.083C1244.93 290.497 1233.68 297.949 1218.48 303.272C1189.52 313.461 1150.21 311.484 1110.38 297.873C1091.6 291.485 1073.74 283.12 1043.1 266.467C1010.95 248.977 992.092 240.233 979.017 236.811C972.251 234.986 973.012 234.453 980.233 235.974C993.005 238.56 1007.14 243.883 1038.54 257.722C1095.1 282.664 1121.1 290.801 1155.15 294.299C1169.37 295.667 1192.48 294.831 1203.96 292.398C1226.84 287.607 1239.54 280.839 1268.2 258.407C1297.39 235.594 1311.53 227.99 1331.29 224.568C1340.95 222.895 1359.65 223.503 1370.29 225.785C1395.91 231.26 1414.91 241.297 1432.93 258.787C1439.77 265.403 1439.92 265.555 1439.92 263.273C1439.92 261.372 1438.78 259.852 1433.31 254.605C1416.66 238.712 1395.15 227.99 1369.61 222.971C1361.09 221.374 1338.51 221.07 1331.6 222.591C1317.23 225.709 1302.63 232.096 1288.87 241.297C1284.77 244.035 1275.11 251.259 1267.36 257.418C1241.66 277.721 1230.64 283.881 1211.1 288.9C1190.5 294.147 1161.92 293.995 1133.72 288.52C1108.33 283.577 1083.92 274.984 1044.09 257.038C1012.69 242.894 996.806 237.039 981.526 233.693L972.783 231.868L979.625 232.248C992.473 232.933 1006.38 236.811 1047.66 251.107C1089.09 265.403 1109.47 270.954 1134.1 274.832C1176.14 281.448 1210.65 277.721 1238.09 263.578C1242.27 261.372 1254.51 253.692 1265.31 246.468C1276.1 239.244 1288.19 231.488 1292.14 229.13C1317.68 214.454 1340.79 210.728 1370.06 216.659C1394.77 221.678 1422.14 236.659 1437.04 253.388L1439.92 256.582V254.148C1439.92 247.685 1415.9 229.967 1396.21 221.982C1374.93 213.238 1350.07 209.968 1330.76 213.238C1314.8 215.975 1295.94 224.264 1277.62 236.659C1272.22 240.385 1262.95 246.62 1257.1 250.574C1245.16 258.787 1231.63 265.707 1221.22 269.053C1185.79 280.535 1138.28 277.341 1080.73 259.547C1074.5 257.57 1059.6 252.475 1047.66 248.217C1023.49 239.472 1014.52 236.583 1002.81 233.769C993.309 231.488 980.233 229.587 973.468 229.511C968.222 229.435 967.614 228.598 972.175 227.686C987.607 224.796 1004.03 226.545 1019.54 232.704C1023.72 234.377 1027.29 235.214 1033.3 235.746C1043.18 236.583 1056.41 239.168 1074.27 243.807C1105.13 251.715 1111.67 253.312 1122.54 255.441C1154.62 261.677 1182.45 262.437 1207.15 257.646C1224.94 254.224 1239.31 247.913 1268.12 231.031C1302.02 211.108 1317.08 205.557 1339.58 204.721C1373.03 203.428 1409.44 217.724 1435.59 242.438L1439.92 246.544V244.187C1439.92 242.286 1439.01 241.069 1434.6 237.115C1425.78 229.13 1416.59 223.047 1404.57 217.116C1391.96 210.804 1380.93 207.002 1367.71 204.417C1356.07 202.059 1335.02 201.831 1325.13 203.96C1308.03 207.61 1292.6 214.454 1266.83 229.815C1241.66 244.795 1232.09 249.206 1215.29 253.54C1200.61 257.266 1193.24 258.103 1173.48 258.027C1147.93 258.027 1132.2 255.517 1087.8 244.415C1057.47 236.735 1049.56 235.138 1037.48 233.769C1029.65 232.933 1025.62 232.02 1019.08 229.663C1006.31 225.1 1000.3 224.036 987.607 224.036C976.584 223.96 976.584 223.96 980.766 222.895C983.502 222.211 989.052 221.83 996.73 221.754C1007.3 221.754 1009.27 221.982 1016.11 223.807C1022.27 225.556 1025.69 226.013 1034.36 226.241C1040.21 226.393 1048.27 226.849 1052.22 227.305C1060.05 228.218 1081.64 231.792 1087.19 233.085C1088.26 233.313 1089.93 233.693 1090.99 233.845C1092.06 233.997 1093.58 234.301 1094.49 234.529C1095.4 234.758 1097.46 235.062 1099.05 235.29C1100.65 235.594 1102.62 235.898 1103.31 236.126C1104.07 236.354 1105.59 236.659 1106.73 236.887C1108.78 237.191 1113.8 238.103 1114.56 238.332C1114.79 238.332 1116.84 238.712 1119.12 239.016C1121.4 239.32 1123.83 239.7 1124.44 239.852C1125.05 239.928 1127.64 240.309 1130.14 240.613C1132.65 240.993 1134.86 241.297 1135.09 241.373C1135.31 241.449 1138.58 241.753 1142.31 242.134C1146.11 242.438 1149.83 242.894 1150.67 242.97C1151.51 243.122 1159.72 243.274 1168.91 243.35C1185.33 243.502 1194.84 242.818 1206.92 240.613C1224.41 237.419 1235.66 233.085 1266.37 217.876C1290.85 205.709 1298.6 202.44 1309.02 199.626C1312.9 198.561 1316.09 197.725 1316.24 197.801C1316.54 197.801 1321.64 196.888 1323.99 196.432C1327.72 195.596 1352.5 195.444 1357.06 196.128C1366.03 197.497 1367.48 197.801 1373.18 199.246C1396.14 205.025 1419.32 217.724 1435.59 233.313L1439.92 237.495V235.138C1439.92 233.161 1439.09 232.02 1435.36 228.674C1416.81 211.869 1389.6 198.942 1362.76 194.151C1352.2 192.326 1332.51 192.25 1323.23 194.075C1305.75 197.573 1294.57 201.831 1266.6 215.899C1241.97 228.218 1231.25 232.628 1217.64 236.05C1203.43 239.624 1190.05 241.145 1171.95 241.069C1150.75 241.069 1138.35 239.624 1099.36 232.552C1066.21 226.469 1055.87 225.024 1040.06 224.188C1028.96 223.579 1023.34 222.895 1017.64 221.526C1005.7 218.561 987.987 218.332 979.397 220.918C978.333 221.298 978.333 221.146 979.473 220.462C980.233 220.005 984.11 218.713 988.215 217.648C994.145 216.127 997.414 215.747 1005.09 215.747C1010.57 215.671 1015.51 216.051 1016.8 216.583C1018.32 217.192 1022.42 217.268 1030.86 216.888C1037.4 216.583 1046.14 216.355 1050.32 216.279C1057.62 216.279 1076.47 217.344 1077.31 217.8C1077.54 217.876 1079.74 218.256 1082.25 218.485C1084.76 218.789 1093.12 219.853 1100.88 220.842C1108.63 221.906 1116.84 222.895 1119.12 223.123C1121.4 223.351 1124.37 223.731 1125.58 223.884C1126.88 224.112 1130.07 224.416 1132.8 224.644C1135.54 224.872 1140.63 225.404 1144.21 225.709C1154.77 226.697 1178.87 226.697 1189.44 225.785C1211.1 223.884 1229.43 219.093 1252.76 209.283C1286.21 195.216 1299.44 190.273 1306.51 189.056C1307.8 188.828 1311.53 188.068 1314.87 187.307C1319.36 186.395 1324.98 186.014 1336.16 185.938C1351.59 185.862 1356.61 186.243 1365.42 188.22C1368.16 188.828 1371.2 189.512 1372.27 189.741C1377.51 190.805 1391.04 195.9 1398.72 199.55C1413.55 206.622 1425.33 214.454 1435.36 223.807C1439.32 227.458 1439.54 227.61 1439.77 225.937C1440.08 223.807 1438.94 222.363 1431.94 216.659C1401.53 191.794 1359.12 178.79 1323.46 183.581C1306.89 185.786 1292.37 190.425 1263.79 202.668C1224.26 219.625 1205.33 223.884 1169.67 223.884C1149.68 223.807 1145.35 223.503 1105.06 218.561C1063.78 213.466 1050.32 212.705 1034.66 214.53C1028.35 215.215 1025.77 215.215 1020.75 214.302C1010.87 212.629 996.273 213.086 987.607 215.367C983.654 216.355 980.309 217.116 980.157 217.04C979.549 216.507 992.016 211.945 998.022 210.424C1003.42 209.131 1006.76 208.827 1015.35 208.903C1023.34 208.979 1027.75 208.675 1032.84 207.534C1050.02 203.884 1076.25 203.656 1113.04 206.774C1136.61 208.827 1177.35 209.664 1191.11 208.371C1213.92 206.242 1226.31 203.124 1262.04 190.653C1296.55 178.638 1308.18 175.901 1328.18 175.14C1364.66 173.696 1404.95 188.22 1433.84 213.162C1439.24 217.8 1439.54 217.952 1439.77 216.203C1440.08 214.074 1438.94 212.933 1428.9 205.329C1409.59 190.653 1386.79 180.387 1362.31 175.216C1349.46 172.479 1329.62 171.795 1316.39 173.696C1302.63 175.597 1286.59 180.007 1263.94 188.144C1225.55 201.831 1210.57 205.177 1180.47 206.774C1165.11 207.534 1147.25 206.85 1117.98 204.417C1107.57 203.58 1089.7 202.668 1078.37 202.44C1056.56 201.983 1046.14 202.668 1033.6 205.253C1028.58 206.242 1023.79 206.622 1015.73 206.622C1003.72 206.546 996.198 207.839 986.771 211.717C984.186 212.781 981.83 213.618 981.602 213.618C980.613 213.542 984.566 211.032 990.04 208.219C998.25 204.113 1007.37 201.603 1017.86 200.691C1023.41 200.234 1029.04 199.246 1032.84 198.029C1054.2 191.185 1072.67 189.969 1129.92 191.489C1168.53 192.554 1185.79 192.022 1205.4 189.208C1220 187.155 1228.97 185.026 1255.5 177.422C1296.78 165.635 1302.48 164.647 1326.65 164.647C1345.66 164.647 1350.98 165.255 1366.34 169.133C1389.6 175.14 1415.22 188.296 1433.69 203.884C1439.7 208.979 1440 209.131 1439.77 207.078C1439.32 202.972 1420.99 189.512 1404.19 180.92C1377.66 167.46 1350.68 161.073 1324.75 162.213C1305.67 163.05 1291.84 165.711 1262.57 174.152C1231.33 183.201 1218.55 186.09 1197.42 188.676C1188.98 189.741 1158.04 189.893 1103.16 189.284C1066.06 188.828 1054.96 189.893 1033.6 196.128C1029.19 197.421 1022.42 198.714 1017.64 199.094C1007.07 200.082 999.922 202.059 989.964 206.85C981.754 210.728 981.146 210.12 988.367 205.253C997.946 198.714 1007.9 194.759 1019.31 192.782C1023.64 192.022 1029.27 190.273 1034.13 188.22C1042.19 184.722 1051.84 181.908 1062.49 179.855C1077.23 176.965 1087.34 176.357 1130.9 175.597C1199.17 174.456 1203.96 173.924 1260.14 161.149C1289.1 154.533 1308.03 152.252 1325.82 153.088C1356.91 154.533 1385.11 163.202 1412.48 179.551C1419.32 183.733 1431.94 192.858 1436.88 197.345C1439.85 200.006 1439.92 200.082 1439.92 198.257C1439.92 196.052 1437.26 193.391 1428.67 187.155C1409.21 172.783 1386.71 162.137 1363.45 156.206C1349.76 152.632 1338.21 151.263 1323.01 151.263C1303.24 151.263 1288.49 153.316 1259 160.084C1208.52 171.718 1202.21 172.403 1140.79 173.315C1115.7 173.696 1091.45 174.38 1086.81 174.836C1063.93 177.117 1050.48 180.159 1033.07 186.927C1028.73 188.6 1021.74 190.653 1017.41 191.566C1007.52 193.543 997.87 197.421 990.268 202.364C989.052 203.2 990.192 201.679 992.929 199.018C998.934 193.238 1008.51 187.992 1018.4 185.102C1022.12 184.037 1028.81 181.3 1033.22 179.095C1049.11 170.958 1066.9 165.635 1087.57 162.745C1103.92 160.464 1113.95 159.78 1149.91 158.487C1196.43 156.814 1204.34 156.054 1241.89 149.362C1282.41 142.138 1293.81 140.997 1315.18 141.606C1360.86 142.974 1400.17 157.955 1437.49 188.22C1439.85 190.197 1439.92 190.197 1439.92 188.676C1439.92 185.178 1419.55 170.73 1401.69 161.529C1368.31 144.267 1335.62 137.347 1299.36 139.781C1283.86 140.845 1275.57 141.986 1248.73 146.701C1205.4 154.305 1198.49 154.989 1133.56 157.346C1085.22 159.171 1061.88 163.734 1035.5 176.509C1029.42 179.399 1021.66 182.669 1018.17 183.657C1014.67 184.646 1009.73 186.547 1007.14 187.839C1001.06 190.957 1002.66 189.056 1011.02 183.353C1027.37 172.175 1058.38 159.704 1088.56 152.1C1110.07 146.701 1125.28 144.647 1166.63 141.378C1202.44 138.64 1205.48 138.336 1233.99 134.534C1262.27 130.808 1275.42 129.439 1289.41 128.755C1338.89 126.549 1393.93 144.267 1431.87 174.684C1435.29 177.422 1438.48 179.931 1439.01 180.387C1439.7 180.92 1439.92 180.691 1439.92 179.475C1439.92 177.65 1432.32 171.338 1420.54 163.43C1393.93 145.636 1364.13 134.001 1332.66 129.135C1323.31 127.69 1318.52 127.386 1300.05 127.386C1277.01 127.31 1275.87 127.386 1238.85 132.253C1209.05 136.131 1205.71 136.435 1173.48 138.716C1143.14 140.845 1126.95 142.67 1109.01 146.016C1063.93 154.457 1021.89 171.414 999.846 190.121C990.344 198.181 989.888 198.409 993.537 194.075C999.542 186.775 1013.53 174.152 1020.9 169.209C1035.2 159.704 1060.28 147.689 1080.73 140.693C1109.16 130.884 1130.37 127.158 1181.46 123.127C1192.56 122.215 1211.71 120.542 1224.03 119.325C1260.06 115.751 1268.42 115.295 1289.41 115.751C1309.4 116.132 1319.58 117.272 1336.16 120.846C1372.19 128.679 1406.86 145.332 1435.97 168.677C1439.47 171.566 1439.92 171.718 1439.92 170.35C1439.92 168.449 1431.87 161.833 1419.25 153.468C1380.32 127.69 1339.96 115.067 1291.31 113.47C1275.57 113.014 1261.66 113.774 1231.4 116.74C1220.99 117.728 1199.09 119.629 1182.75 120.846C1143.45 123.888 1127.41 126.017 1106.2 131.188C1070.09 140.085 1030.94 158.031 1009.65 175.597C1006.92 177.802 1001.67 182.745 997.946 186.547C991.028 193.619 991.712 192.098 1000.07 181.68C1011.4 167.688 1023.41 157.575 1041.51 146.701C1083.16 121.759 1115.4 111.721 1168.91 106.854C1263.86 98.2616 1295.79 98.7939 1337.68 109.82C1372.87 119.021 1408.98 137.271 1434.98 158.791C1439.16 162.289 1440.68 162.669 1439.7 160.084C1439.47 159.476 1435.36 156.13 1430.65 152.556C1379.64 114.23 1315.78 95.8282 1246.83 99.5543ZM19.8019 150.883C24.6671 156.282 37.3624 171.186 48.0051 183.961C72.3314 213.162 82.8221 224.872 96.2776 238.408C124.937 267.076 151.088 283.273 178.759 289.28C186.589 291.029 205.67 291.637 215.02 290.421C230.072 288.596 249.229 282.664 269.07 273.691C273.555 271.714 286.783 265.479 298.49 259.776C330.418 244.339 346.914 237.647 377.93 227.305C448.856 203.808 492.796 201.071 537.951 217.268C569.043 228.446 596.106 245.327 617.544 267C628.263 277.874 637.157 288.596 655.934 313.233C674.559 337.719 682.769 347.68 692.803 357.946C706.411 371.938 717.434 380.379 730.509 387.07C734.006 388.819 736.667 390.416 736.439 390.568C735.754 391.253 720.322 383.42 714.241 379.39C695.996 367.147 682.465 352.699 652.893 313.842C634.648 289.888 628.187 282.208 616.556 270.574C601.58 255.669 586.3 244.871 565.014 234.225C532.326 217.8 502.906 211.184 472.803 213.466C452.657 214.987 435.325 218.561 405.753 227.381C364.551 239.7 336.804 250.194 297.425 268.368C247.937 291.105 227.868 297.264 202.705 297.264C166.368 297.264 133.755 280.991 97.4179 244.795C84.0384 231.412 73.6237 219.245 44.6603 182.973C21.7024 154.305 18.6616 150.655 6.34641 136.663L0.72096 130.351L5.81427 135.674C8.627 138.564 14.9366 145.408 19.8019 150.883ZM5.81427 140.617C7.41068 142.29 8.627 143.659 8.39894 143.659C8.17088 143.659 6.65049 142.29 5.05408 140.617C3.45767 138.944 2.24135 137.575 2.46941 137.575C2.69747 137.575 4.21786 138.944 5.81427 140.617ZM12.1239 153.696C16.229 158.867 27.2518 172.935 36.6022 185.102C66.5539 224.036 80.8456 241.145 96.6577 256.962C124.709 285.022 152.608 301.295 180.659 306.009C189.63 307.53 206.582 307.758 216.008 306.465C237.826 303.424 252.042 298.709 302.291 277.721C356.569 255.061 402.18 238.484 432.74 230.423C455.47 224.416 478.048 221.906 496.369 223.351C531.262 226.241 569.88 242.514 599.071 266.771C612.603 277.95 624.462 291.257 647.8 321.598C665.284 344.259 673.266 353.688 683.681 363.954C698.505 378.706 710.82 387.299 725.112 393.078C733.398 396.424 734.918 397.336 729.065 395.663C712.796 390.872 698.125 381.671 682.085 366.083C671.898 356.197 663.688 346.54 647.42 325.4C630.619 303.576 623.625 295.135 613.971 285.174C598.083 268.749 582.651 257.494 562.278 247.457C524.344 228.902 491.96 224.036 455.318 231.488C428.179 236.963 373.521 256.658 285.186 292.702C237.142 312.245 206.962 317.492 177.162 311.332C150.632 305.857 125.849 290.801 98.9383 263.806C80.0854 244.947 65.4136 226.925 34.3216 184.646C24.059 170.654 13.0361 155.902 9.76729 151.795C6.57447 147.765 4.06582 144.419 4.29388 144.419C4.44592 144.419 8.01884 148.602 12.1239 153.696ZM17.0652 153.696C21.3983 158.867 33.4854 173.62 43.9001 186.623C74.536 224.796 90.272 242.514 105.932 256.734C154.433 300.61 197.004 309.583 254.778 287.987C260.404 285.858 279.789 277.721 297.806 269.813C341.821 250.574 353.148 246.164 384.772 235.67C433.12 219.549 459.879 214.302 488.539 215.367C508.836 216.127 526.625 220.081 547.454 228.522C574.441 239.548 596.639 254.376 616.252 274.528C627.046 285.63 633.508 293.462 652.741 318.556C670.986 342.357 675.699 348.061 686.494 359.087C701.622 374.599 712.188 382.584 727.088 389.732C736.439 394.218 737.123 394.827 729.445 391.937C715.305 386.614 701.774 377.641 688.166 364.562C677.751 354.524 668.857 344.106 652.589 322.815C645.215 313.157 636.245 301.675 632.672 297.264C624.614 287.303 607.433 269.737 599.907 263.578C580.294 247.761 550.343 232.704 525.18 226.165C510.28 222.363 500.246 220.994 486.258 220.994C462.236 220.918 443.079 224.948 400.812 238.788C362.042 251.563 332.851 262.589 299.554 277.113C267.17 291.333 252.498 296.808 235.774 301.066C194.951 311.408 160.058 304.032 124.937 277.569C101.979 260.232 80.9216 237.571 47.9291 194.759C19.8019 158.335 15.6968 153.088 12.0479 148.754C9.99535 146.396 8.47496 144.419 8.70302 144.419C8.93108 144.419 12.7321 148.602 17.0652 153.696ZM19.9539 170.426C25.9595 178.486 36.2981 192.478 42.9879 201.451C78.641 249.51 103.651 276.125 129.194 293.31C162.795 315.971 196.699 321.446 238.054 310.952C253.942 306.922 265.041 302.892 313.542 283.653C378.842 257.722 424.606 241.145 444.219 236.431C476.3 228.674 498.649 228.598 526.016 236.126C556.424 244.491 585.616 261.22 607.509 282.816C617.164 292.398 625.602 302.283 642.63 324.259C661.179 348.137 667.869 356.121 677.143 365.398C692.803 381.063 708.311 391.253 725.34 396.956C733.398 399.617 731.649 399.845 722.603 397.26C707.551 392.926 690.447 382.204 676.307 368.212C667.033 359.087 658.823 349.429 643.999 330.343C627.35 308.899 621.877 302.435 610.626 290.877C590.177 269.965 573.377 258.483 548.29 248.217C507.848 231.716 474.627 230.955 432.056 245.632C418.981 250.194 372.381 268.216 306.472 294.223C275.38 306.465 263.293 310.8 249.001 314.754C201.261 327.833 166.292 323.651 131.627 300.686C120.072 293.006 112.318 286.466 98.5582 272.627C78.0329 252.019 61.5366 231.26 28.8482 184.646C19.8779 171.795 11.5918 160.084 10.3754 158.563C9.23515 157.042 8.47496 155.826 8.70302 155.826C8.93108 155.826 13.9484 162.441 19.9539 170.426ZM27.5559 188.296C56.5954 229.511 69.7467 246.544 88.6756 266.923C118.855 299.546 147.591 317.34 180.279 323.499C189.402 325.172 210.611 325.172 220.57 323.499C221.634 323.347 223.914 322.967 225.663 322.739C231.516 321.902 249.761 317.187 260.176 313.766C279.485 307.378 329.658 288.139 394.274 262.285C444.295 242.286 461.932 237.799 488.919 238.027C518.794 238.256 550.267 248.521 578.242 267.228C590.253 275.212 597.475 281.295 608.27 292.398C617.24 301.599 622.485 307.986 650.08 342.966C662.7 358.935 679.12 375.892 689.23 383.42C697.593 389.58 712.036 397.032 720.779 399.541C724.351 400.53 726.48 401.366 725.644 401.366C722.451 401.518 710.364 397.488 702.914 393.914C689.534 387.451 676.383 377.109 663.992 363.497C657.226 356.045 653.881 351.939 629.403 321.218C611.614 298.937 599.527 286.466 585.16 275.592C565.242 260.612 534.455 247.761 508.684 243.731C478.656 239.016 455.926 243.35 410.238 262.513C399.824 266.847 381.807 274.376 370.252 279.242C344.101 290.192 294.917 309.659 279.561 315.134C259.188 322.358 240.715 327.225 223.838 329.658C211.447 331.483 190.694 331.331 179.215 329.278C135.58 321.522 98.5582 291.257 50.6658 224.264C41.1634 210.88 11.2877 166.472 11.8198 166.472C11.9719 166.472 19.1177 176.281 27.5559 188.296ZM22.9947 189.436C55.7591 238.256 71.1151 258.331 93.0087 280.915C111.786 300.23 126.533 311.56 144.93 320.457C153.9 324.868 168.8 330.191 174.578 331.103C176.782 331.483 178.607 331.864 182.56 332.7C183.624 332.852 189.25 333.232 195.103 333.537C219.809 334.601 243.299 329.734 284.426 315.134C319.775 302.511 356.265 287.987 394.274 271.41C430.46 255.593 444.599 250.498 461.552 247C469.078 245.48 472.499 245.175 486.258 245.175C504.731 245.175 507.696 245.48 521.227 248.977C554.068 257.342 582.955 274.376 606.597 299.165C614.123 307.074 618.836 312.701 643.619 344.03C657.606 361.672 675.015 379.542 685.429 386.918C694.172 393.078 707.095 399.389 715.837 401.747C719.638 402.811 722.147 403.648 721.463 403.648C720.779 403.724 716.901 402.887 712.872 401.899C694.172 397.108 675.319 384.485 657.682 364.866C653.805 360.532 643.239 347.757 634.268 336.502C610.246 306.389 599.755 295.059 585.388 283.577C575.885 275.973 569.195 271.866 555.816 265.403C524.724 250.422 493.176 245.327 465.201 250.879C447.716 254.3 434.261 259.471 391.538 279.242C347.142 299.774 302.291 318.024 272.643 327.681C197.46 352.015 147.895 341.901 98.1021 291.941C75.6003 269.281 55.303 242.134 22.3105 190.425C17.5213 182.897 13.1122 175.977 12.428 174.988C11.8198 174.076 11.5157 173.315 11.7438 173.315C11.9719 173.315 16.9892 180.615 22.9947 189.436ZM19.1937 191.566C45.7246 233.541 65.1096 260.308 84.1905 281.372C115.891 316.503 144.018 334.221 179.139 341.141C189.706 343.194 215.4 343.042 228.476 340.761C253.182 336.502 285.11 326.313 330.722 308.214C355.58 298.329 369.644 292.17 394.959 280.003C438.138 259.319 453.874 253.844 476.756 251.563C509.444 248.293 553.079 262.057 582.347 284.946C596.639 296.124 608.346 308.671 630.771 337.187C646.964 357.794 652.817 364.638 662.319 374.143C678.892 390.644 696.148 401.062 713.405 404.788C715.989 405.397 717.206 405.853 716.141 405.929C712.112 406.081 698.961 402.127 691.511 398.477C673.418 389.656 657.53 374.752 632.596 343.65C612.983 319.089 606.065 311.18 594.89 300.306C585.008 290.725 580.218 286.847 570.032 280.231C552.699 268.901 524.952 258.787 503.895 256.202C492.34 254.757 472.271 255.593 462.312 257.95C445.055 262.057 436.997 265.403 395.415 286.238C359.229 304.336 345.546 310.572 317.723 321.674C266.637 341.977 235.622 349.734 204.834 349.734C159.982 349.734 124.253 331.864 87.8394 291.029C66.1738 266.695 48.3852 241.525 19.8779 194.607C7.8668 174.836 7.94282 174.912 9.0071 175.977C9.46321 176.357 14.0244 183.429 19.1937 191.566ZM19.9539 201.071C60.7004 267.836 92.3246 306.009 125.241 328.138C134.515 334.297 151.62 342.738 161.198 345.855C175.794 350.646 183.244 351.635 203.465 351.635C219.125 351.635 223.078 351.33 231.592 349.81C272.263 342.586 338.172 318.024 389.713 290.953C442.167 263.35 458.663 257.722 486.258 257.57C527.613 257.418 572.388 278.558 603.024 312.701C606.901 316.959 618.076 330.571 627.883 342.89C654.109 375.664 668.325 389.352 685.962 398.781C696.148 404.18 708.843 408.058 717.586 408.362C719.486 408.438 719.866 408.59 718.65 408.818C715.685 409.427 704.282 407.602 697.669 405.473C689.534 402.963 677.979 396.956 670.302 391.329C661.179 384.637 643.543 366.387 631.075 350.874C606.597 320.305 595.118 307.606 582.043 296.656C563.114 280.839 539.396 269.509 513.473 264.034C504.731 262.209 502.146 261.981 487.779 261.981C473.715 261.905 470.826 262.133 463.984 263.654C446.272 267.608 428.863 275.44 394.274 294.983C361.966 313.233 342.201 322.663 308.98 335.742C266.866 352.319 235.545 359.619 206.354 359.619C171.537 359.619 141.813 348.821 113.458 325.932C105.096 319.241 88.2195 302.131 79.4773 291.561C60.4724 268.52 42.3797 241.677 19.8779 202.972C4.14184 175.825 4.14184 175.14 19.9539 201.071ZM7.33466 187.763C8.01884 188.98 8.32292 190.045 8.17088 190.045C7.94282 190.045 7.25865 188.98 6.57447 187.763C5.89029 186.471 5.58621 185.482 5.73825 185.482C5.96631 185.482 6.65049 186.471 7.33466 187.763ZM5.81427 193.086C6.87855 195.14 7.56272 196.888 7.33466 196.888C7.18263 196.888 6.11835 195.14 5.05408 193.086C3.9898 190.957 3.30563 189.284 3.53368 189.284C3.68572 189.284 4.75 190.957 5.81427 193.086ZM984.262 196.736C982.21 202.896 978.333 209.816 977.041 209.816C976.584 209.816 978.181 205.785 980.461 200.843C982.818 195.976 984.871 191.489 985.099 190.957C985.327 190.425 985.707 190.121 985.859 190.349C986.087 190.577 985.327 193.391 984.262 196.736ZM17.9774 206.318C40.3272 244.491 61.0805 275.136 77.3487 293.842C100.079 320.001 121.136 337.339 142.65 347.833C164.771 358.555 183.396 362.433 209.395 361.672C232.657 361.064 251.358 357.11 285.718 345.551C328.441 331.255 355.352 319.089 397.999 294.603C439.658 270.802 455.698 264.87 481.317 264.034C495.228 263.578 504.655 264.566 518.186 268.064C544.641 274.756 564.254 285.022 584.323 302.587C594.206 311.18 602.188 320.229 621.953 344.791C640.35 367.68 647.648 375.968 656.466 383.953C667.641 394.142 676.839 400.15 688.47 404.712C695.54 407.526 708.311 410.491 714.089 410.644C716.141 410.72 716.673 410.872 715.457 411.1C712.796 411.632 700.253 409.959 693.944 408.21C681.552 404.712 667.337 396.5 654.641 385.245C645.975 377.641 637.841 368.44 618.076 344.03C602.416 324.716 587.288 308.443 577.862 300.838C557.184 284.185 532.554 273.235 505.263 268.672C493.632 266.695 474.779 266.923 464.593 269.053C453.038 271.486 443.839 274.756 432.056 280.535C421.87 285.478 418.069 287.683 381.047 310.116C371.24 316.047 358.165 323.423 352.084 326.541C312.781 346.464 270.819 361.216 236.534 367.223C224.523 369.353 202.249 370.113 190.922 368.82C138.468 362.813 96.4296 331.864 53.5546 267.608C42.2277 250.65 23.6029 219.169 11.8958 197.269C6.19437 186.623 8.39894 189.969 17.9774 206.318ZM9.99535 209.588C54.999 295.896 95.7455 344.791 141.813 367.527C163.935 378.402 186.057 383.04 212.207 382.204C233.493 381.519 252.726 377.717 280.473 368.592C317.038 356.729 352.16 340 379.831 321.37C385.684 317.492 396.783 310.039 404.537 304.793C439.43 281.448 457.067 275.288 486.486 276.201C504.731 276.733 520.315 280.307 538.94 288.139C565.851 299.546 583.183 314.678 615.415 355.057C635.561 380.227 645.139 390.188 658.062 399.541C670.53 408.514 683.377 413.457 699.113 415.51L707.475 416.575L699.493 416.195C686.342 415.51 677.447 413.153 666.348 407.222C649.548 398.325 637.613 386.538 607.813 349.734C595.118 333.993 581.207 319.241 572.616 312.321C545.097 290.04 509.368 277.721 477.136 279.242C451.517 280.459 430.004 289.964 395.035 315.515C357.177 343.194 349.955 347.757 327.377 358.859C298.794 372.85 270.438 382.432 242.235 387.679C192.975 396.88 149.643 385.93 110.493 354.372C77.3487 327.605 47.2449 285.098 11.8198 214.911C7.03059 205.405 3.30563 197.649 3.45767 197.649C3.6097 197.649 6.57447 203.048 9.99535 209.588ZM16.0769 211.717C30.2166 237.115 46.3327 263.121 58.5719 280.155C108.061 348.821 158.918 377.489 220.95 371.786C253.714 368.744 302.671 353.308 345.014 332.624C365.159 322.815 370.404 319.849 395.035 304.488C427.571 284.185 440.494 277.721 456.534 273.691C476.756 268.596 494.468 268.749 516.666 274.3C528.525 277.265 538.94 281.067 549.354 286.238C572.236 297.416 589.265 313.081 618.532 349.734C636.473 372.242 651.373 388.135 661.711 395.739C673.266 404.18 686.722 410.111 698.809 412.088C706.867 413.381 707.019 413.457 703.978 413.533C695.92 413.761 680.488 409.427 670.682 404.028C657.454 396.88 641.034 381.291 622.789 358.859C597.779 328.138 587.896 317.187 576.265 307.454C543.729 280.307 496.141 267.304 460.411 275.896C440.418 280.763 427.419 287.531 388.877 313.309C360.066 332.548 345.242 341.065 323.196 350.874C273.403 373.079 227.944 383.04 193.127 379.466C145.766 374.599 105.78 348.669 68.1503 298.709C51.7301 276.885 31.813 244.263 14.1764 210.196C6.72651 195.9 7.71476 196.66 16.0769 211.717ZM24.9712 257.722C56.5954 315.971 87.8394 354.296 123.113 377.793C168.116 407.83 217.453 411.936 279.561 390.72C310.501 380.151 341.061 364.79 364.627 347.985C368.808 345.019 379.907 336.426 389.333 328.822C422.706 302.131 436.541 294.071 457.143 289.508C467.405 287.227 487.55 287.075 499.181 289.204C543.273 297.264 566.307 313.309 609.942 366.463C623.549 383.04 630.467 390.72 638.525 397.868C650.156 408.286 661.331 414.826 673.646 418.476C677.219 419.54 679.348 420.377 678.512 420.377C675.547 420.453 663.536 416.651 657.226 413.609C640.958 405.777 628.263 393.382 597.171 355.057C585.92 341.141 569.5 324.716 559.313 317.187C545.173 306.694 529.057 299.241 511.497 294.983C487.702 289.128 468.317 289.052 449.008 294.603C441.863 296.656 428.863 302.511 422.402 306.542C414.42 311.56 398.151 324.335 381.047 339.088C371.24 347.452 359.457 357.11 354.896 360.532C327.453 380.759 294.005 396.652 259.72 405.625C215.932 417.107 178.379 414.294 143.182 396.88C102.739 376.805 68.6065 340 35.1578 280.307C27.6319 266.847 16.6851 245.175 10.0714 230.727C2.39339 213.998 2.62145 213.77 10.6035 229.967C14.3285 237.495 20.7901 249.966 24.9712 257.722ZM15.0126 248.977C35.69 291.181 56.8234 324.411 78.413 348.593C87.9154 359.315 101.447 372.394 109.201 378.63C133.603 398.02 161.882 410.339 189.478 413.609C201.185 414.978 225.967 414.217 237.674 412.164C281.613 404.332 331.026 381.671 367.287 352.699C371.24 349.582 380.667 341.521 388.193 334.981C420.349 306.846 435.857 297.873 459.271 293.766C470.142 291.865 489.983 292.626 502.374 295.287C521.455 299.47 540.004 307.226 552.927 316.503C568.587 327.757 578.85 338.099 603.632 367.984C635.865 406.841 653.501 419.845 679.12 423.495L683.909 424.179L677.827 423.875C662.091 423.038 646.811 415.89 630.923 401.975C622.789 394.827 614.807 385.93 598.463 365.702C573.148 334.449 553.231 317.187 531.566 307.834C514.081 300.306 494.62 296.276 475.995 296.2C462.388 296.2 454.026 297.493 442.167 301.599C423.238 308.138 409.934 317.644 377.55 347.833C360.598 363.649 354.136 369.124 342.961 377.109C320.003 393.534 291.344 407.298 263.141 415.51C219.505 428.133 180.583 426.004 145.462 409.047C125.241 399.313 110.265 388.515 92.7807 371.025C67.1621 345.551 45.9526 314.222 22.6906 267.608C14.4805 251.335 2.84951 226.089 1.86125 222.743C1.55718 221.45 1.40514 221.222 15.0126 248.977ZM11.8958 253.844C30.6727 294.147 54.6189 333.004 74.9921 356.197C106.54 392.089 136.264 412.316 170.777 421.213C195.027 427.449 222.926 427.221 250.977 420.453C280.929 413.229 314.682 398.02 341.441 379.542C356.265 369.353 366.147 361.14 387.889 340.685C411.683 318.252 426.203 308.291 442.927 302.663C469.306 293.842 505.035 297.645 534.455 312.397C554.524 322.51 569.043 335.59 596.03 367.984C624.31 401.899 638.373 414.446 656.086 421.594C664.144 424.863 669.161 425.928 679.728 426.536L689.991 427.145L677.827 426.917C664.752 426.764 661.179 426.08 651.221 421.898C636.701 415.89 618.912 400.074 599.147 375.588C579.61 351.407 566.155 337.263 553.916 328.138C534.15 313.233 510.128 304.336 482.533 301.827C461.172 299.85 438.822 304.869 420.805 315.819C409.782 322.51 398.912 331.864 375.726 354.752C351.779 378.249 342.961 385.778 327.757 395.815C310.349 407.298 293.7 415.586 273.935 422.658C239.803 434.901 207.494 437.867 177.619 431.555C165.607 428.97 156.561 425.776 143.41 419.312C103.956 400.074 70.4309 365.094 38.8828 310.116C31.5089 297.264 14.5565 263.121 7.94282 247.837C-1.55963 225.937 -0.0392359 228.218 11.8958 253.844ZM933.253 240.993C934.622 241.601 934.622 241.677 932.873 241.677C931.809 241.677 930.441 241.373 929.832 240.993C928.92 240.385 928.92 240.233 930.212 240.309C931.049 240.309 932.417 240.613 933.253 240.993ZM883.08 246.164C867.496 254.3 858.602 261.144 842.714 277.037C824.545 295.287 814.055 309.431 792.541 344.791C779.542 366.311 776.197 371.178 765.098 385.397C764.946 385.55 764.642 385.55 764.414 385.245C764.11 385.017 764.566 384.181 765.326 383.42C767.607 381.139 778.705 363.801 786.155 350.874C803.944 320.153 809.569 311.332 819.908 298.101C827.206 288.672 842.334 272.779 851.076 265.403C861.947 256.125 877.607 246.392 887.261 242.818C892.507 240.917 891.29 241.83 883.08 246.164ZM889.162 245.784C867.876 256.962 849.328 273.311 829.487 298.329C821.048 308.975 813.066 320.609 800.979 339.848C794.822 349.658 787.6 360.912 784.863 364.866C779.542 372.394 769.431 384.941 767.759 385.93C766.77 386.538 767.987 384.713 770.039 382.584C773.612 378.706 783.495 363.725 795.886 343.27C813.218 314.678 825.762 297.34 840.509 281.6C855.485 265.555 869.853 254.376 885.285 246.696C897.144 240.765 899.881 240.157 889.162 245.784ZM901.325 245.784C887.87 252.932 875.478 262.665 861.035 277.569C846.211 292.778 835.72 306.237 813.903 337.947C797.102 362.281 789.5 372.242 780.682 381.215L773.08 388.895L779.314 381.747C789.956 369.353 795.962 360.912 817.475 328.062C845.071 286.01 870.461 260.156 897.676 246.316C906.722 241.753 909.839 241.297 901.325 245.784ZM866.66 243.578C866.508 243.731 863.695 244.947 860.503 246.24C840.357 254.224 817.247 269.205 802.804 283.577C790.945 295.439 784.559 305.933 770.343 337.263C761.069 357.642 751.11 378.021 750.654 377.641C750.502 377.489 751.871 374.143 753.695 370.189C755.519 366.235 760.917 353.992 765.63 342.89C782.963 302.131 791.097 289.128 808.125 274.832C821.352 263.806 842.714 251.411 857.994 245.86C864.151 243.578 867.572 242.742 866.66 243.578ZM872.666 248.141C849.784 261.144 825.534 284.946 806.985 312.549C800.371 322.282 795.354 330.647 780.606 355.969C774.296 366.843 762.665 384.257 762.057 383.725C761.905 383.496 764.262 379.542 767.227 374.752C770.267 370.037 777.717 357.186 783.723 346.312C800.903 315.286 805.54 307.986 816.183 294.603C832.299 274.452 854.193 255.669 871.297 247.533C879.051 243.807 879.735 244.111 872.666 248.141ZM906.19 245.099C906.038 245.251 902.845 247.457 899.044 249.966C885.209 259.091 873.35 269.661 860.807 283.881C849.556 296.808 842.942 305.401 823.405 332.624C803.564 360.227 794.822 371.254 785.623 380.151C781.974 383.725 780.682 384.713 782.81 382.432C792.997 371.482 800.523 361.444 817.323 336.882C839.673 304.032 849.556 291.561 866.66 274.452C879.431 261.677 887.261 255.517 899.577 248.369C905.202 245.175 907.103 244.187 906.19 245.099ZM916.909 245.099C916.909 245.251 915.085 246.544 912.956 247.913C899.425 256.582 880.192 275.06 864.988 293.995C861.035 298.937 850.772 312.625 842.182 324.488C833.516 336.274 822.949 350.342 818.692 355.665C809.265 367.299 794.441 382.356 787.828 386.918C783.571 389.808 784.255 388.971 794.365 378.934C806.985 366.235 813.522 358.326 829.943 335.514C857.31 297.645 867.04 285.478 881.56 271.03C886.577 266.011 893.951 259.471 897.904 256.43C908.395 248.521 916.909 243.426 916.909 245.099ZM893.039 246.544C860.503 267 842.334 286.694 806.681 339.924C791.705 362.281 784.027 372.774 777.869 379.39L773.916 383.572L777.793 378.63C782.05 373.231 795.886 352.699 808.201 333.384C822.113 311.636 832.147 298.253 845.983 283.12C858.982 268.901 875.174 255.593 887.946 248.673C893.419 245.708 896.156 244.567 893.039 246.544ZM910.447 246.24C909.991 246.544 907.026 248.673 903.758 250.803C895.396 256.43 885.893 264.566 876.239 274.528C862.935 288.215 855.333 297.797 826.066 337.947C809.341 360.836 795.506 377.033 785.775 384.941C783.191 387.07 784.255 385.702 789.272 380.531C799.155 370.113 805.996 361.368 825.609 333.917C848.263 302.055 858.45 289.432 873.502 274.452C886.121 261.905 893.419 255.973 904.518 249.206C910.295 245.708 911.892 244.871 910.447 246.24ZM923.827 248.141C923.827 248.445 921.85 250.118 919.418 251.943C900.565 265.859 869.245 296.276 852.901 316.655C850.164 320.001 843.93 328.366 838.989 335.286C834.048 342.205 827.434 351.102 824.241 355.057C813.598 368.516 798.471 382.888 789.576 388.135C787.524 389.352 787.524 389.276 789.956 387.299C807.213 373.079 816.563 362.281 844.082 324.868C864.532 297.112 873.426 286.086 885.285 273.919C895.396 263.426 905.05 255.137 914.096 249.13C918.962 245.86 919.418 245.708 921.546 246.62C922.839 247.152 923.827 247.837 923.827 248.141ZM854.193 250.803C853.737 251.183 846.971 255.745 838.989 260.916C804.324 283.653 795.278 294.451 774.828 338.099C766.542 355.589 756.66 374.675 754.151 377.869C753.315 378.934 754.531 376.196 756.812 371.786C759.092 367.375 764.794 355.437 769.431 345.171C787.372 305.781 793.681 294.907 805.54 283.197C814.815 273.995 831.615 262.133 847.351 253.768C854.345 250.042 855.409 249.586 854.193 250.803ZM924.891 250.803C924.435 251.183 921.546 253.616 918.429 256.278C893.039 277.645 865.216 307.91 843.93 337.187C828.422 358.555 815.575 372.774 803.64 381.747C792.085 390.416 791.097 390.264 801.815 381.443C814.739 370.873 825.153 358.783 842.41 334.525C848.795 325.552 856.397 315.286 859.362 311.712C866.28 303.348 891.214 278.406 902.465 268.596C911.284 260.916 924.587 250.118 925.195 250.118C925.423 250.118 925.271 250.422 924.891 250.803ZM857.994 253.084C857.538 253.388 855.257 255.137 852.825 256.886C834.732 270.041 817.019 288.748 802.956 309.431C795.506 320.305 792.161 326.084 780.682 346.996C771.255 364.182 762.361 378.934 760.841 379.922C760.309 380.227 760.537 379.542 761.297 378.402C764.566 373.383 767.987 367.147 778.325 347.452C795.354 314.982 803.488 301.979 815.651 287.835C826.826 274.832 843.626 260.156 853.357 254.985C858.146 252.399 859.21 251.943 857.994 253.084ZM910.219 268.14C883.46 294.755 872.21 307.682 847.959 339.544C827.358 366.615 814.207 379.694 798.699 388.439C794.898 390.568 796.722 388.971 804.096 383.572C810.786 378.782 823.633 366.387 830.551 358.098C833.516 354.524 841.422 344.106 848.111 334.981C864.38 312.701 871.373 304.564 892.127 283.957C906.418 269.661 924.815 252.551 925.879 252.399C926.031 252.399 918.962 259.471 910.219 268.14ZM924.359 263.578C899.805 290.801 880.116 314.146 865.52 333.384C840.281 366.615 826.37 380.151 807.593 389.58C802.5 392.165 801.587 391.709 806.453 389.047C817.019 383.344 831.615 370.949 842.106 358.783C845.831 354.372 853.661 344.563 859.514 336.806C871.829 320.457 884.449 305.173 899.12 288.748C912.804 273.463 932.797 252.399 933.709 252.399C934.166 252.399 929.908 257.418 924.359 263.578ZM919.19 263.502C894.559 289.128 875.782 311.028 856.702 336.654C845.451 351.711 839.977 358.402 832.603 365.702C822.721 375.512 812.838 383.496 805.768 387.222C803.564 388.363 802.576 388.743 803.64 387.983C824.241 373.003 832.527 364.486 853.433 336.426C867.04 318.1 872.057 312.017 886.881 295.82C897.904 283.653 927.932 253.16 928.844 253.16C929.072 253.16 924.739 257.798 919.19 263.502ZM936.674 253.54C936.674 253.692 934.698 256.202 932.265 259.015C929.832 261.905 918.429 275.668 906.951 289.66C887.109 313.842 882.092 320.229 865.292 342.129C846.895 366.007 831.539 380.074 814.359 388.667C805.236 393.306 803.716 393.382 811.622 388.819C831.387 377.565 843.398 365.55 871.069 329.582C887.261 308.519 919.114 270.802 931.657 257.874C936.142 253.236 936.674 252.78 936.674 253.54ZM938.423 255.593C919.95 279.09 897.676 307.91 884.753 325.02C864.836 351.407 859.894 357.262 849.708 366.995C840.433 375.816 832.375 381.747 822.569 386.994C813.37 391.861 812.23 391.861 820.364 386.994C838.913 375.816 849.404 365.398 874.794 332.624C896.08 305.173 937.282 254.833 938.499 254.757C938.879 254.681 938.803 255.137 938.423 255.593ZM832.527 255.745C832.527 255.897 830.247 257.418 827.434 259.091C818.16 264.566 804.932 274.68 798.699 280.915C786.155 293.614 778.021 307.682 763.502 341.369C754.683 361.9 751.11 369.733 750.73 369.353C750.654 369.2 754.607 358.859 759.625 346.312C774.904 307.834 783.419 292.246 795.962 279.699C803.032 272.703 808.581 268.749 822.873 260.688C832.299 255.365 832.527 255.213 832.527 255.745ZM941.996 256.886C941.996 257.57 891.899 324.488 876.695 343.954C858.07 367.984 840.889 382.432 821.428 390.492C812.002 394.37 812.382 393.61 822.417 388.515C842.866 378.021 857.538 364.562 877.455 337.947C884.373 328.746 896.612 312.625 904.746 302.131C912.88 291.637 924.207 277.037 929.832 269.661C938.879 257.798 941.996 254.529 941.996 256.886ZM10.7555 274.832C22.0064 299.85 36.0701 325.4 50.6658 347.452C60.9285 362.965 68.5304 372.698 81.8339 387.146C101.675 408.666 119.692 422.582 141.889 433.456C154.128 439.464 164.999 443.19 178.683 446.079C187.577 448.056 189.554 448.132 206.506 448.208C222.242 448.208 226.119 447.98 234.557 446.459C254.854 442.809 276.748 435.281 297.501 424.939C321.98 412.773 340.376 398.933 364.247 374.904L374.509 364.562L367.287 372.85C338.78 405.625 321.144 420.453 294.385 434.065C238.814 462.276 188.185 464.938 141.889 442.125C89.2078 416.119 44.5082 358.783 7.33466 269.433C4.59796 262.893 2.39339 257.342 2.46941 257.114C2.46941 256.43 3.30563 258.103 10.7555 274.832ZM934.318 273.083C912.576 304.717 885.361 341.749 874.718 354.296C862.783 368.364 849.176 379.618 835.568 386.538C825.229 391.861 821.656 392.774 830.931 387.755C843.778 380.835 855.485 371.482 866.812 359.087C869.777 355.817 886.577 333.993 904.214 310.572C944.2 257.418 943.82 257.874 944.2 258.179C944.352 258.331 939.943 265.022 934.318 273.083ZM943.44 265.479C932.341 283.881 900.945 329.43 887.033 347.376C879.431 357.186 865.292 371.558 857.614 377.261C850.62 382.432 841.27 387.907 835.188 390.34C826.75 393.686 826.75 393.23 835.188 388.971C851.228 380.835 867.04 366.919 883.156 346.692C896.612 329.734 925.499 289.964 942.756 264.414C944.656 261.677 946.329 259.547 946.481 259.699C946.633 259.852 945.264 262.437 943.44 265.479ZM6.57447 277.874C12.1239 290.953 26.6436 320.001 34.3216 333.384C42.7598 348.061 58.0397 371.178 65.6417 380.607C74.1559 391.253 91.2603 409.503 98.7862 416.119C146.527 457.638 196.623 469.424 254.398 452.695C264.053 449.881 280.929 443.114 291.496 437.867C316.582 425.244 330.722 414.598 354.06 390.568C364.399 379.998 365.843 378.706 361.586 383.953C330.418 422.354 306.472 440.984 269.374 455.889C246.948 464.938 226.651 469.12 204.986 469.12C188.413 469.12 176.782 467.219 160.514 461.82C105.856 443.722 58.2678 392.317 19.4218 309.431C13.0361 295.667 2.39339 270.802 2.39339 269.433C2.39339 268.216 3.15359 269.813 6.57447 277.874ZM825.153 274.3C814.739 283.957 802.271 299.546 793.453 313.842C791.097 317.72 785.547 327.833 781.062 336.274C770.951 355.589 761.829 372.242 760.537 373.915C759.929 374.599 762.133 369.885 765.402 363.421C768.671 356.958 775.893 342.357 781.366 331.103C793.377 306.389 799.611 296.58 809.645 286.542C815.803 280.459 828.194 270.041 829.487 269.965C829.715 269.889 827.738 271.866 825.153 274.3ZM989.584 273.843L991.788 276.353L989.356 274.148C986.999 272.018 986.467 271.41 987.075 271.41C987.227 271.41 988.291 272.551 989.584 273.843ZM1013.45 304.869C1018.32 310.496 1030.1 324.64 1039.68 336.274C1062.56 364.182 1071.76 374.447 1085.37 387.755C1114.71 416.347 1140.86 429.806 1172.41 432.62C1191.34 434.293 1209.13 430.491 1224.41 421.67C1231.1 417.791 1243.49 405.473 1248.73 397.64C1250.79 394.523 1252.76 391.557 1253.14 391.177C1254.21 389.884 1251.4 396.195 1247.52 403.724C1237.71 422.962 1227.3 434.217 1213.01 441.06C1202.74 446.003 1196.59 447.296 1182.98 447.372C1169.9 447.448 1162.76 446.307 1150.82 442.429C1117.75 431.631 1090.46 407.602 1049.34 353.156C1017.03 310.42 1006.92 297.797 992.549 282.74C983.578 273.311 983.654 273.387 994.069 283.881C999.922 289.812 1008.66 299.241 1013.45 304.869ZM936.598 281.067C924.739 302.131 908.547 327.301 896.612 343.27C876.087 370.721 855.485 387.146 833.592 393.458C827.054 395.359 823.557 395.663 829.258 393.838C834.428 392.165 842.486 388.439 848.339 385.017C870.157 372.09 890.302 348.897 925.879 295.515C932.721 285.174 938.575 276.733 938.727 276.733C938.955 276.733 937.966 278.71 936.598 281.067ZM993.385 288.291L995.589 290.801L993.157 288.596C990.8 286.466 990.268 285.858 990.876 285.858C991.028 285.858 992.092 286.999 993.385 288.291ZM999.466 295.135L1001.67 297.645L999.238 295.439C996.882 293.31 996.35 292.702 996.958 292.702C997.11 292.702 998.174 293.842 999.466 295.135ZM487.398 310.648C515.146 314.83 536.963 324.868 556.956 342.738C565.623 350.418 572.388 357.794 591.469 380.531C612.375 405.473 624.69 417.031 638.145 424.559C644.227 427.981 655.326 431.631 661.939 432.544L667.185 433.152L663.004 433.304C652.893 433.532 637.385 427.525 626.058 419.084C616.023 411.632 608.802 404.256 590.101 382.432C580.294 370.949 568.207 357.566 563.266 352.699C545.173 334.601 526.929 323.271 506.783 317.568C475.083 308.595 447.412 309.887 424.15 321.446C419.209 323.879 415.18 325.78 415.18 325.704C415.18 325.628 417.764 323.955 420.805 321.978C439.43 310.42 461.172 306.694 487.398 310.648ZM490.439 316.199C512.713 320.761 534.455 331.407 551.863 346.16C560.225 353.232 567.675 361.216 583.791 380.531C618.228 421.594 633.736 432.62 662.243 436.346L667.945 437.106L660.419 436.726C651.449 436.27 643.771 434.369 635.941 430.795C621.041 423.875 608.726 413.001 586.756 387.375C567.675 365.17 561.137 358.098 552.395 350.266C528.373 328.898 501.766 318.176 469.914 317.264C455.774 316.807 446.12 317.948 434.945 321.294C428.179 323.347 417.46 328.366 411.455 332.32C408.338 334.373 408.186 334.449 410.238 332.624C414.039 329.354 424.226 323.271 430.232 320.761C436.313 318.252 444.751 315.895 452.049 314.83C459.499 313.613 482.153 314.45 490.439 316.199ZM1015.96 322.51C1019.46 327.225 1028.58 340 1036.26 350.874C1063.78 389.808 1078.3 408.362 1093.58 424.179C1116.76 447.904 1138.81 461.136 1162.45 465.394C1170.89 466.915 1188.76 466.763 1196.66 465.09C1215.13 461.136 1229.88 451.174 1240.14 435.661C1246.15 426.536 1251.02 416.423 1259.68 395.131C1267.89 374.98 1273.29 363.573 1278.38 355.893C1293.13 333.613 1315.33 319.621 1343.38 315.058C1352.12 313.613 1369.83 313.994 1378.12 315.819C1402.98 321.218 1421.68 335.438 1432.17 356.806C1435.89 364.41 1439.62 374.599 1439.01 375.284C1438.78 375.436 1438.18 374.143 1437.64 372.394C1436.2 367.375 1430.57 356.729 1426.85 351.635C1413.24 333.461 1395.6 323.575 1371.35 320.761C1358.05 319.241 1340.72 321.218 1326.65 325.856C1301.49 334.221 1281.2 352.547 1268.04 378.782C1263.48 387.907 1261.51 392.85 1254.44 412.773C1251.47 421.289 1247.52 431.707 1245.69 435.89C1234.59 461.06 1220.99 474.443 1200.84 479.842C1192.56 482.123 1174.24 482.275 1164.89 480.298C1158.27 478.853 1148.54 475.66 1142.46 472.998C1127.41 466.459 1107.41 450.262 1091.6 431.935C1080.43 419.008 1070.32 404.94 1044.7 366.463C1031.39 346.616 1017.94 326.693 1014.75 322.13C1011.55 317.644 1009.12 313.994 1009.27 313.994C1009.5 313.994 1012.54 317.872 1015.96 322.51ZM489.755 321.902C512.409 326.769 529.437 335.057 547.15 349.962C556.348 357.642 564.026 365.855 579.99 385.093C594.51 402.431 609.41 417.868 617.772 424.179C624.614 429.274 635.104 434.445 642.858 436.498C646.659 437.486 652.741 438.247 659.203 438.627L669.465 439.159L662.091 439.768C644.759 441.289 628.795 435.966 613.439 423.571C605.609 417.259 594.738 405.853 579.078 387.375C556.804 361.216 542.285 347.68 527.233 339.012C492.796 319.165 449.389 316.275 418.601 331.636C415.256 333.308 411.607 335.362 410.467 336.198C409.25 337.035 408.338 337.491 408.338 337.263C408.338 336.502 417.08 330.951 422.554 328.138C429.471 324.716 437.606 321.902 445.36 320.457C454.862 318.708 478.352 319.393 489.755 321.902ZM1379.11 324.564C1405.33 330.495 1424.11 346.692 1433.77 371.786C1436.58 379.01 1437.57 383.496 1435.13 377.793C1429.43 364.638 1423.58 356.197 1413.47 346.616C1402.98 336.578 1389.98 330.039 1374.55 326.921C1363.9 324.716 1344.9 325.02 1335.4 327.605C1319.89 331.712 1310.23 337.339 1298 349.201C1284.46 362.357 1274.35 377.261 1266.6 395.511C1264.62 400.226 1259.91 413.153 1256.11 424.255C1243.26 462.048 1238.4 471.782 1226.16 483.72C1216.81 492.997 1207 497.18 1190.81 498.853C1175.53 500.526 1157.74 497.256 1143.14 490.108C1122.01 479.842 1104.53 463.493 1081.72 432.62C1072.07 419.464 1061.73 403.724 1042.49 372.774C1032.91 357.414 1023.49 342.281 1021.59 339.24C1019.61 336.274 1018.24 333.765 1018.47 333.765C1018.62 333.765 1025.92 344.487 1034.51 357.49C1074.12 417.563 1092.59 440.908 1114.1 458.398C1137.9 477.713 1162.98 486.23 1188.6 483.568C1199.25 482.504 1205.02 480.907 1213.01 477.105C1232.39 467.675 1242.96 451.934 1258.62 409.047C1262.72 397.944 1267.82 385.017 1270.1 380.227C1286.06 346.54 1312.29 327.605 1349.46 322.815C1355.16 322.13 1372.8 323.119 1379.11 324.564ZM486.182 326.845C509.52 331.559 528.145 340.913 546.314 357.11C555.436 365.322 563.114 373.687 578.698 392.317C598.007 415.586 608.042 425.092 620.889 432.696C632.216 439.311 641.414 441.897 654.261 442.049C658.899 442.049 664.676 441.897 667.185 441.593L671.746 441.136L667.565 442.201C657.454 444.863 641.87 444.33 632.064 440.908C615.643 435.281 604.317 425.624 577.558 394.599C549.506 362.128 535.367 349.429 516.666 340.076C500.398 331.94 477.516 326.921 456.306 326.921C441.254 326.921 427.115 330.039 415.788 335.742C413.735 336.806 412.139 337.415 412.139 337.187C412.139 336.35 424.302 330.799 430.308 328.898C441.711 325.248 446.956 324.64 463.072 324.944C474.399 325.172 479.872 325.628 486.182 326.845ZM722.147 406.537C721.387 406.689 720.17 406.689 719.486 406.537C718.726 406.309 719.334 406.157 720.779 406.157C722.223 406.157 722.831 406.309 722.147 406.537ZM673.494 436.194C672.734 436.346 671.518 436.346 670.834 436.194C670.073 435.966 670.682 435.814 672.126 435.814C673.57 435.814 674.178 435.966 673.494 436.194Z" fill="#101010"/>
<path d="M1116.99 101.608C1114.33 102.672 1112.36 103.661 1112.51 103.813C1112.74 104.117 1122.24 100.467 1122.85 99.8586C1123.61 99.0982 1121.4 99.7826 1116.99 101.608Z" fill="#101010"/>
<path d="M1107.72 105.637C1106.27 106.474 1105.44 107.082 1105.82 107.082C1106.27 107.082 1107.79 106.474 1109.24 105.637C1110.68 104.801 1111.6 104.192 1111.14 104.192C1110.76 104.192 1109.16 104.801 1107.72 105.637Z" fill="#101010"/>
<path d="M297.578 224.339C294.917 226.013 294.081 227.154 296.437 225.861C298.11 224.872 300.846 222.818 300.39 222.742C300.162 222.742 298.87 223.503 297.578 224.339Z" fill="#101010"/>
<path d="M289.215 229.662C286.555 231.336 285.718 232.477 288.075 231.184C289.747 230.195 292.484 228.141 292.028 228.065C291.8 228.065 290.508 228.826 289.215 229.662Z" fill="#101010"/>
<path d="M272.111 239.928C269.222 241.449 269.374 242.058 272.263 240.613C273.555 239.928 274.544 239.244 274.544 239.091C274.544 238.559 274.468 238.635 272.111 239.928Z" fill="#101010"/>
<path d="M261.62 245.556C259.34 246.772 257.743 247.761 258.047 247.837C258.808 247.837 266.181 244.111 266.181 243.655C266.181 243.122 266.258 243.122 261.62 245.556Z" fill="#101010"/>
<path d="M252.498 249.738C251.434 250.346 250.977 250.803 251.357 250.803C251.814 250.803 252.954 250.346 254.018 249.738C255.082 249.129 255.615 248.673 255.158 248.673C254.778 248.673 253.562 249.129 252.498 249.738Z" fill="#101010"/>
</svg>
