<svg xmlns="http://www.w3.org/2000/svg" viewBox="0 0 18 19" fill="none">
  <path d="M13 1.33325H5C2.79086 1.33325 1 3.12411 1 5.33325V13.3333C1 15.5424 2.79086 17.3333 5 17.3333H13C15.2091 17.3333 17 15.5424 17 13.3333V5.33325C17 3.12411 15.2091 1.33325 13 1.33325Z" stroke="white" stroke-width="2" stroke-linecap="round" stroke-linejoin="round"/>
  <path d="M12.2974 8.84439C12.4002 9.53793 12.2817 10.2462 11.9588 10.8686C11.6359 11.4909 11.125 11.9956 10.4987 12.3108C9.87245 12.626 9.16273 12.7357 8.47052 12.6243C7.7783 12.5129 7.13883 12.1861 6.64306 11.6904C6.14729 11.1946 5.82047 10.5551 5.70909 9.8629C5.5977 9.17068 5.70742 8.46097 6.02263 7.8347C6.33785 7.20844 6.84252 6.69751 7.46485 6.37459C8.08718 6.05168 8.79549 5.93322 9.48903 6.03606C10.1965 6.14096 10.8514 6.47061 11.3571 6.97631C11.8628 7.48201 12.1925 8.13695 12.2974 8.84439Z" stroke="white" stroke-width="2" stroke-linecap="round" stroke-linejoin="round"/>
</svg>