<svg xmlns="http://www.w3.org/2000/svg" viewBox="0 0 18 18" fill="none">
  <path d="M12.3334 5.66675C13.5711 5.66675 14.7581 6.18543 15.6332 7.10868C16.5084 8.03194 17.0001 9.28414 17.0001 10.5898V16.3334H13.889V10.5898C13.889 10.1546 13.7251 9.7372 13.4334 9.42945C13.1416 9.12169 12.746 8.9488 12.3334 8.9488C11.9209 8.9488 11.5252 9.12169 11.2335 9.42945C10.9417 9.7372 10.7779 10.1546 10.7779 10.5898V16.3334H7.66675V10.5898C7.66675 9.28414 8.15841 8.03194 9.03358 7.10868C9.90875 6.18543 11.0957 5.66675 12.3334 5.66675Z" fill="white" stroke="white" stroke-width="2" stroke-linecap="round" stroke-linejoin="round"/>
  <path d="M4.33333 6.33325H1V16.3333H4.33333V6.33325Z" fill="white" stroke="white" stroke-width="2" stroke-linecap="round" stroke-linejoin="round"/>
  <path d="M2.66667 4.33333C3.58714 4.33333 4.33333 3.58714 4.33333 2.66667C4.33333 1.74619 3.58714 1 2.66667 1C1.74619 1 1 1.74619 1 2.66667C1 3.58714 1.74619 4.33333 2.66667 4.33333Z" fill="white" stroke="white" stroke-width="2" stroke-linecap="round" stroke-linejoin="round"/>
</svg>